<svg id="Capa_1" data-name="Capa 1" xmlns="http://www.w3.org/2000/svg" viewBox="0 0 201.02 183.95"><defs><style>.cls-1{fill:#fc6320;}.cls-2{opacity:0.3;}.cls-3{fill:#fff;}</style></defs><title>Grupo 1528</title><rect class="cls-1" width="201.02" height="183.95"/><g class="cls-2"><path class="cls-3" d="M49,20.66a.53.53,0,0,0-.69.09l-4.48,3.79a.45.45,0,0,0-.08.5.23.23,0,0,0,.33.13l0,0,4.47-3.79c.09-.08.15-.08.15-.07s0,.06,0,.21a1.79,1.79,0,0,1-.47,1.16L44,26.34c-.23.2-.44.25-.58.14a1,1,0,0,1-.21-.73,3.92,3.92,0,0,1,1.07-2.63l4.94-4.19a.42.42,0,0,0,.05-.54.15.15,0,0,0-.05-.06l-9.48-8a.23.23,0,0,0-.29,0l-5,4.24a4.5,4.5,0,0,0-1.27,3.09v.19a4.5,4.5,0,0,0,1.27,3.09l7.43,6.3a.23.23,0,0,0,.35-.07.08.08,0,0,1,0,0,.44.44,0,0,0-.09-.5l-7.43-6.3a3.72,3.72,0,0,1-1-2.48v-.19a3.72,3.72,0,0,1,1-2.48L39.56,11l9,7.62L44,22.51a4.73,4.73,0,0,0-1.33,3.24,1.68,1.68,0,0,0,.49,1.36.73.73,0,0,0,.42.14,1.07,1.07,0,0,0,.7-.31l4.34-3.67a2.58,2.58,0,0,0,.72-1.77A1,1,0,0,0,49,20.66Z" transform="translate(-33.16 0)"/><path class="cls-3" d="M45.72,19a.25.25,0,0,0,.22-.17.42.42,0,0,0-.08-.49l-6.15-5.22a.23.23,0,0,0-.35.07s0,0,0,0a.45.45,0,0,0,.08.5l6.16,5.21A.2.2,0,0,0,45.72,19Z" transform="translate(-33.16 0)"/><path class="cls-3" d="M44.66,19.94a.25.25,0,0,0,.22-.17.42.42,0,0,0-.08-.49l-2.6-2.2a.23.23,0,0,0-.35.07l0,.05a.43.43,0,0,0,.09.49l2.6,2.2A.24.24,0,0,0,44.66,19.94Z" transform="translate(-33.16 0)"/><path class="cls-3" d="M41.11,18a.21.21,0,0,0-.34.07l0,0a.44.44,0,0,0,.09.49l2.62,2.2a.2.2,0,0,0,.14.06.25.25,0,0,0,.22-.17.42.42,0,0,0-.08-.49Z" transform="translate(-33.16 0)"/><path class="cls-3" d="M38.32,14.05,36.1,15.92a.44.44,0,0,0-.05.54.18.18,0,0,0,.05.07l2.64,2.21a.22.22,0,0,0,.15.06.2.2,0,0,0,.14-.06l.59-.51a.44.44,0,0,0,.08-.5.22.22,0,0,0-.33-.13l0,0-.44.39-2.14-1.79,1.71-1.45,2.11,1.78-.25.21a.44.44,0,0,0-.08.5.22.22,0,0,0,.33.13.05.05,0,0,0,0,0l.6-.52a.44.44,0,0,0,0-.55l0-.05-2.6-2.2A.21.21,0,0,0,38.32,14.05Z" transform="translate(-33.16 0)"/><path class="cls-3" d="M42.75,21.67a.44.44,0,0,0-.08-.49L40,19a.23.23,0,0,0-.35.07l0,.05a.43.43,0,0,0,.09.49l2.63,2.21a.23.23,0,0,0,.15.05A.24.24,0,0,0,42.75,21.67Z" transform="translate(-33.16 0)"/><path class="cls-3" d="M35.06,17.08a.44.44,0,0,0,.09.5L41.66,23a.2.2,0,0,0,.14.06.29.29,0,0,0,.23-.17.44.44,0,0,0-.09-.5L35.43,17a.22.22,0,0,0-.34.07Z" transform="translate(-33.16 0)"/><path class="cls-3" d="M155.83,15.64a.26.26,0,0,0,.22-.29V12.2a.8.8,0,0,0-.65-.87h-7.81a.8.8,0,0,0-.65.87V25.28a.79.79,0,0,0,.65.87h7.82a.79.79,0,0,0,.64-.87V23.15a.25.25,0,0,0-.18-.29.23.23,0,0,0-.25.22v2.2a.26.26,0,0,1-.21.29h-7.82a.27.27,0,0,1-.22-.29V12.21a.27.27,0,0,1,.22-.29h7.82a.25.25,0,0,1,.21.29v3.14A.27.27,0,0,0,155.83,15.64Z" transform="translate(-33.16 0)"/><path class="cls-3" d="M152.65,24h-1.16a.28.28,0,0,0-.21.32.27.27,0,0,0,.21.25h1.16a.29.29,0,0,0,.22-.32A.27.27,0,0,0,152.65,24Z" transform="translate(-33.16 0)"/><path class="cls-3" d="M152.65,22.39H149.6a.28.28,0,0,0-.21.32.26.26,0,0,0,.21.25h3.05a.27.27,0,0,0,.21-.32A.26.26,0,0,0,152.65,22.39Z" transform="translate(-33.16 0)"/><path class="cls-3" d="M152.65,20.77H149.6a.28.28,0,0,0-.21.32.26.26,0,0,0,.21.25h3.05a.27.27,0,0,0,.21-.32A.26.26,0,0,0,152.65,20.77Z" transform="translate(-33.16 0)"/><path class="cls-3" d="M148.84,19.23a.18.18,0,0,0-.28,0l0,0a.36.36,0,0,0,0,.4.18.18,0,0,0,.28,0l0,0a.36.36,0,0,0,0-.4Z" transform="translate(-33.16 0)"/><path class="cls-3" d="M148.84,20.85a.18.18,0,0,0-.28,0l0,0a.38.38,0,0,0,0,.41.18.18,0,0,0,.28,0l0,0A.38.38,0,0,0,148.84,20.85Z" transform="translate(-33.16 0)"/><path class="cls-3" d="M148.84,22.47a.18.18,0,0,0-.28,0l0,0a.38.38,0,0,0,0,.41.17.17,0,0,0,.28,0l0,0A.38.38,0,0,0,148.84,22.47Z" transform="translate(-33.16 0)"/><path class="cls-3" d="M152.65,19.15H149.6a.28.28,0,0,0-.21.32.26.26,0,0,0,.21.25h3.05a.27.27,0,0,0,.21-.32A.26.26,0,0,0,152.65,19.15Z" transform="translate(-33.16 0)"/><path class="cls-3" d="M152.65,17.45H149.6a.29.29,0,0,0-.21.33.27.27,0,0,0,.21.25h3.05a.28.28,0,0,0,.21-.33A.27.27,0,0,0,152.65,17.45Z" transform="translate(-33.16 0)"/><path class="cls-3" d="M152.65,15.83H149.6a.29.29,0,0,0-.21.33.27.27,0,0,0,.21.25h3.05a.28.28,0,0,0,.21-.33A.27.27,0,0,0,152.65,15.83Z" transform="translate(-33.16 0)"/><path class="cls-3" d="M148.84,14.29a.17.17,0,0,0-.28,0l0,0a.38.38,0,0,0,0,.41.18.18,0,0,0,.28,0l0,0A.38.38,0,0,0,148.84,14.29Z" transform="translate(-33.16 0)"/><path class="cls-3" d="M148.84,15.91a.18.18,0,0,0-.28,0l0,0a.38.38,0,0,0,0,.41.17.17,0,0,0,.28,0l0,0A.38.38,0,0,0,148.84,15.91Z" transform="translate(-33.16 0)"/><path class="cls-3" d="M148.84,17.53a.18.18,0,0,0-.28,0l0,0a.36.36,0,0,0-.06.2.32.32,0,0,0,.06.2.17.17,0,0,0,.28,0l0,0a.32.32,0,0,0,.06-.2A.36.36,0,0,0,148.84,17.53Z" transform="translate(-33.16 0)"/><path class="cls-3" d="M152.65,14.21H149.6a.29.29,0,0,0-.21.33.27.27,0,0,0,.21.25h3.05a.28.28,0,0,0,.21-.33A.27.27,0,0,0,152.65,14.21Z" transform="translate(-33.16 0)"/><path class="cls-3" d="M157.49,15.11a.69.69,0,0,0-.69-.12.94.94,0,0,0-.54.56l-2.71,6.31a.36.36,0,0,0,0,.11l-.2,2.3a.31.31,0,0,0,.11.28.17.17,0,0,0,.24,0l1.38-1.37a.19.19,0,0,0,.05-.09l2.71-6.3A1.47,1.47,0,0,0,157.49,15.11Zm-3.67,8.57.09-1.2.63.48Zm1-1.14L154,21.9l2.17-5.06.82.63Zm2.6-6.06-.22.49-.81-.63.21-.5a.52.52,0,0,1,.28-.3.36.36,0,0,1,.36.07.59.59,0,0,1,.22.38.82.82,0,0,1,0,.49Z" transform="translate(-33.16 0)"/><path class="cls-3" d="M203,104.44a.2.2,0,0,0-.31,0l0,0a.43.43,0,0,0,0,.46.2.2,0,0,0,.32,0s0,0,0,0A.39.39,0,0,0,203,104.44Z" transform="translate(-33.16 0)"/><path class="cls-3" d="M212.26,95.59a.2.2,0,0,0-.31,0s0,0,0,0a.39.39,0,0,0,0,.46.19.19,0,0,0,.31,0l0,0A.39.39,0,0,0,212.26,95.59Z" transform="translate(-33.16 0)"/><path class="cls-3" d="M213.22,89.73a.23.23,0,0,0-.17-.1h-6a.31.31,0,0,0-.24.33v.93l-2.29.83a.35.35,0,0,0-.17.4l1.19,6-1,1.39A.7.7,0,0,0,204,99h-2.32a.88.88,0,0,0-.72,1v5.3a.87.87,0,0,0,.72,1H204a.79.79,0,0,0,.7-.74l.29.34a1.06,1.06,0,0,0,.8.4h7.3a.29.29,0,0,0,.24-.32V90A.39.39,0,0,0,213.22,89.73Zm-9,15.59a.3.3,0,0,1-.24.33h-2.32a.3.3,0,0,1-.24-.33V100a.29.29,0,0,1,.24-.32h.92v3.75a.28.28,0,0,0,.21.32.25.25,0,0,0,.27-.25V99.7H204a.29.29,0,0,1,.24.32Zm.73-13,1.93-.7v1.2l-.16.06a.31.31,0,0,0-.15.15.43.43,0,0,0,0,.25,1,1,0,0,1-.46,1.07.28.28,0,0,0-.15.15.43.43,0,0,0,0,.25l.94,4.7h-.49l-.25-1.32a.49.49,0,0,0,0-.11Zm1.93,2V97l-.44-2.2a1.27,1.27,0,0,0,.44-.55Zm3.47,11.38h-4.58a.64.64,0,0,1-.48-.24l-.58-.69v-4.5l1.05-1.42.19,1a.28.28,0,0,0,.24.24h4.75a.45.45,0,0,1,.33.52.42.42,0,0,1-.33.39h-2.44a.33.33,0,0,0-.24.37.32.32,0,0,0,.24.29h3.19a.44.44,0,0,1,.34.51.43.43,0,0,1-.34.4h-3.19a.31.31,0,0,0-.24.36.32.32,0,0,0,.24.29h2.68a.44.44,0,0,1,.33.51.43.43,0,0,1-.33.4h-2.68a.31.31,0,0,0-.24.36.32.32,0,0,0,.24.29h1.85a.45.45,0,0,1,.34.51.43.43,0,0,1-.34.4Zm2.48,0h-1.73a1.42,1.42,0,0,0,0-.91h.08a1,1,0,0,0,.82-1.11,1.69,1.69,0,0,0-.08-.5,1.12,1.12,0,0,0,.6-1.07,1.31,1.31,0,0,0-.16-.65V97.28a.29.29,0,0,0-.21-.33.25.25,0,0,0-.27.25.11.11,0,0,0,0,.08V101a.57.57,0,0,0-.18,0h0a1.33,1.33,0,0,0,.07-.45,1,1,0,0,0-.82-1.11h-.39a1.63,1.63,0,0,0,.71-1.43,1.36,1.36,0,0,0-1-1.55,1.24,1.24,0,0,0-1.31,1.2,2,2,0,0,0,0,.35,1.65,1.65,0,0,0,.7,1.43H208.3V93.2a1.37,1.37,0,0,0,.87-1.16H211a1.38,1.38,0,0,0,.86,1.16v1a.29.29,0,0,0,.22.32.27.27,0,0,0,.27-.26V92.92a.3.3,0,0,0-.24-.33.8.8,0,0,1-.66-.88.29.29,0,0,0-.24-.32H209a.29.29,0,0,0-.24.32.8.8,0,0,1-.65.88.3.3,0,0,0-.24.33v6.47h-.47V90.28h5.46Zm-2.73-6.77a.82.82,0,0,1-.87-.8.91.91,0,0,1,.67-1,.82.82,0,0,1,.87.8V98a.83.83,0,0,1-.67.91Z" transform="translate(-33.16 0)"/><path class="cls-3" d="M97.76,27a.77.77,0,0,1-.63-.84V11.38a.74.74,0,0,1,.55-.84.67.67,0,0,1,.71.65.6.6,0,0,1,0,.19V26.11A.77.77,0,0,1,97.76,27Z" transform="translate(-33.16 0)"/><path class="cls-3" d="M103.23,19.59H92.29a.85.85,0,0,1-.62-1,.81.81,0,0,1,.62-.74h10.94a.84.84,0,0,1,.62,1,.81.81,0,0,1-.62.74Z" transform="translate(-33.16 0)"/><path class="cls-3" d="M207.1,27a.77.77,0,0,1-.63-.84V11.38a.75.75,0,0,1,.55-.84.66.66,0,0,1,.71.65.6.6,0,0,1,0,.19V26.11A.77.77,0,0,1,207.1,27Z" transform="translate(-33.16 0)"/><path class="cls-3" d="M212.57,19.59H201.63a.85.85,0,0,1-.62-1,.81.81,0,0,1,.62-.74h10.94a.84.84,0,0,1,.62,1,.8.8,0,0,1-.62.74Z" transform="translate(-33.16 0)"/><path class="cls-3" d="M152.44,107.49a.76.76,0,0,1-.63-.84V91.92a.74.74,0,0,1,.55-.84.67.67,0,0,1,.71.65.6.6,0,0,1,0,.19v14.73A.77.77,0,0,1,152.44,107.49Z" transform="translate(-33.16 0)"/><path class="cls-3" d="M157.91,100.13H147a.84.84,0,0,1-.62-.95.8.8,0,0,1,.62-.74h10.94a.84.84,0,0,1,.62,1A.8.8,0,0,1,157.91,100.13Z" transform="translate(-33.16 0)"/><path class="cls-3" d="M41.24,107.49a.76.76,0,0,1-.63-.84V91.92a.76.76,0,0,1,.55-.85.68.68,0,0,1,.71.65v14.93A.77.77,0,0,1,41.24,107.49Z" transform="translate(-33.16 0)"/><path class="cls-3" d="M46.71,100.13H35.77a.84.84,0,0,1-.62-.95.8.8,0,0,1,.62-.74H46.71a.84.84,0,0,1,.62,1A.8.8,0,0,1,46.71,100.13Z" transform="translate(-33.16 0)"/></g><path class="cls-3" d="M81.18,69a16,16,0,0,0-1.82.11A15,15,0,0,0,73.67,97v2a5,5,0,0,0,5,5h5a5,5,0,0,0,5-5h0V97a15,15,0,0,0-7.51-28Zm6.26,25.86-1.25.72v3.47a2.5,2.5,0,0,1-2.5,2.5h-5a2.51,2.51,0,0,1-2.5-2.5V95.59l-1.25-.72A12.52,12.52,0,0,1,79.67,71.6a12.79,12.79,0,0,1,1.52-.09,12.51,12.51,0,0,1,6.26,23.36Zm0,13a1.25,1.25,0,0,1-1.25,1.25h-2.5a2.51,2.51,0,1,1-5,0h-2.5a1.25,1.25,0,0,1,0-2.5h10a1.25,1.25,0,0,1,1.25,1.25h0ZM63.65,84a1.25,1.25,0,0,1-1.25,1.25H59.89a1.25,1.25,0,0,1,0-2.5h2.5A1.25,1.25,0,0,1,63.64,84Zm40.07,0a1.25,1.25,0,0,1-1.25,1.25H100A1.25,1.25,0,0,1,98.79,84,1.24,1.24,0,0,1,100,82.79h2.5A1.25,1.25,0,0,1,103.72,84ZM79.93,65.25v-2.5a1.25,1.25,0,0,1,1.32-1.18,1.27,1.27,0,0,1,1.18,1.18v2.5a1.25,1.25,0,0,1-1.32,1.18A1.24,1.24,0,0,1,79.93,65.25ZM97.12,68.1a1.25,1.25,0,0,1,0,1.77h0l-1.77,1.77a1.26,1.26,0,0,1-1.77,0,1.24,1.24,0,0,1,0-1.77h0l0,0,1.77-1.77a1.25,1.25,0,0,1,1.77,0ZM67,71.64l-1.77-1.77A1.25,1.25,0,0,1,67,68.1h0l1.77,1.77a1.24,1.24,0,0,1,0,1.77,1.26,1.26,0,0,1-1.77,0Z" transform="translate(-33.16 0)"/></svg>