<svg xmlns="http://www.w3.org/2000/svg" width="28.244" height="16.004" viewBox="0 0 28.244 16.004"><defs><style>.a{fill:#ff6510;}</style></defs><path class="a" d="M1564.3,815.591v-7.048l.588-.152a.471.471,0,0,0,0-.912l-13.651-3.53a.48.48,0,0,0-.235,0l-13.651,3.53a.47.47,0,0,0,0,.911L1543.59,810v6.639a.472.472,0,0,0,.356.457l2.989.747a.469.469,0,0,0,.421.679h.941v.941a.471.471,0,0,0,.8.333l2.021-2.021,2.021,2.021a.471.471,0,0,0,.8-.333v-.941h.941a.469.469,0,0,0,.42-.679l2.989-.747a.472.472,0,0,0,.356-.457V810l4.707-1.217v6.8l-.892,1.783a.47.47,0,0,0,0,.421l.942,1.883a.471.471,0,0,0,.842,0l.942-1.883a.47.47,0,0,0,0-.421Zm-15.534,1.994h-.276l.841-.842a2.356,2.356,0,0,0,.85.644l-.944.944v-.276A.471.471,0,0,0,1548.768,817.584Zm2.354-.942a1.412,1.412,0,1,1,1.412-1.412A1.414,1.414,0,0,1,1551.122,816.643Zm2.354.942a.471.471,0,0,0-.471.471v.276l-.944-.944a2.354,2.354,0,0,0,.849-.644l.841.842Zm4.237-1.309-3.151.788-1.187-1.187a2.318,2.318,0,0,0,.1-.645,2.354,2.354,0,0,0-4.707,0,2.318,2.318,0,0,0,.1.645l-1.188,1.187-3.15-.788v-6.028L1551,811.92a.464.464,0,0,0,.118.015.459.459,0,0,0,.117-.015l6.473-1.674Zm-6.59-5.3-11.771-3.044,11.771-3.044,11.77,3.044Zm12.71,7.436-.416-.831.416-.831.415.831Z" transform="translate(-1537 -803.934)"/></svg>