<svg xmlns="http://www.w3.org/2000/svg" width="78" height="64" viewBox="0 0 78 64"><defs><style>.a{fill:#fc6320;}.b{fill:#fff;}</style></defs><g transform="translate(-29 -1759)"><path class="a" d="M12.326,0H78a0,0,0,0,1,0,0V64a0,0,0,0,1,0,0H0a0,0,0,0,1,0,0V12.326A12.326,12.326,0,0,1,12.326,0Z" transform="translate(29 1759)"/><g transform="translate(55.086 1773.781)"><path class="b" d="M97.484,4180.058A12.854,12.854,0,0,0,84.645,4192.9c0,9.154,10.985,21.059,11.454,21.561a1.89,1.89,0,0,0,2.769,0c.468-.5,11.454-12.407,11.454-21.561A12.853,12.853,0,0,0,97.484,4180.058Zm-10.158,12.434a10.158,10.158,0,1,1,10.158,10.158A10.159,10.159,0,0,1,87.326,4192.492Z" transform="translate(-84.645 -4180.058)"/></g></g></svg>