<svg xmlns="http://www.w3.org/2000/svg" width="44.9" height="34.696" viewBox="0 0 44.9 34.696"><defs><style>.a{fill:#fff;}</style></defs><path class="a" d="M1522.592,335.091a4.637,4.637,0,0,0-4.592,4.592v26.532a3.58,3.58,0,0,0,.989,2.567,3.624,3.624,0,0,0,2.583,1h33.675a1.02,1.02,0,0,0,.029-2.041h-33.7a1.39,1.39,0,0,1-1.531-1.531V339.683a2.682,2.682,0,0,1,2.551-2.551h12.756a3.909,3.909,0,0,1,3.635,2.376l2.551,7.143a1.02,1.02,0,0,0,.957.686h16.837c.922,0,1.292.309,1.467,1a.977.977,0,0,0,.064.191v17.683a1.39,1.39,0,0,1-1.531,1.531,1.02,1.02,0,0,0-.029,2.041h.029a3.624,3.624,0,0,0,2.583-1,3.58,3.58,0,0,0,.989-2.567V344.658a4.478,4.478,0,0,0-4.465-4.465h-17.045l-.495-1.371a5.845,5.845,0,0,0-5.548-3.731Zm19.516,7.143h16.327a2.4,2.4,0,0,1,2.424,2.423v.989a3.7,3.7,0,0,0-1.531-.35h-16.12Z" transform="translate(-1518 -335.091)"/></svg>