<svg xmlns="http://www.w3.org/2000/svg" width="314" height="318" viewBox="0 0 314 318"><defs><style>.a{fill:#fc6320;}.b{opacity:0.33;}.c{fill:#fff;}</style></defs><g transform="translate(-28 -1397)"><rect class="a" width="314" height="318" transform="translate(28 1397)"/><g class="b" transform="translate(48.179 1431.968)"><g transform="translate(0)"><path class="c" d="M98.379,3717.965a.9.9,0,0,0-1.024.112l-6.586,4.717a.484.484,0,0,0-.123.615.366.366,0,0,0,.541.139l6.586-4.717c.14-.1.216-.092.227-.085s.058.076.058.263a2.041,2.041,0,0,1-.7,1.445l-6.385,4.573c-.34.243-.65.31-.852.183a1.075,1.075,0,0,1-.317-.917,4.546,4.546,0,0,1,1.587-3.27l7.271-5.206a.482.482,0,0,0,0-.756l-13.971-10a.353.353,0,0,0-.418,0l-7.359,5.27a5.182,5.182,0,0,0-1.865,3.842v.238a5.181,5.181,0,0,0,1.865,3.842l10.946,7.838a.365.365,0,0,0,.54-.139.483.483,0,0,0-.122-.615L77.329,3717.5a4.3,4.3,0,0,1-1.5-3.087v-.238a4.293,4.293,0,0,1,1.5-3.087l7.15-5.12,13.234,9.477-6.743,4.83a5.423,5.423,0,0,0-1.953,4.024,1.9,1.9,0,0,0,.722,1.7,1.13,1.13,0,0,0,.612.177,1.813,1.813,0,0,0,1.037-.386l6.385-4.573a2.968,2.968,0,0,0,1.068-2.2A1.184,1.184,0,0,0,98.379,3717.965Z" transform="translate(-75.046 -3704.99)"/><g transform="translate(9.041 3.514)"><path class="c" d="M97.066,3717.257a.384.384,0,0,0,.332-.209.483.483,0,0,0-.123-.615l-9.063-6.49a.366.366,0,0,0-.541.14.484.484,0,0,0,.123.615l9.063,6.491A.362.362,0,0,0,97.066,3717.257Z" transform="translate(-87.611 -3709.874)"/></g><g transform="translate(12.707 8.458)"><path class="c" d="M96.927,3720.368a.384.384,0,0,0,.332-.209.484.484,0,0,0-.124-.615l-3.828-2.73a.366.366,0,0,0-.541.141.483.483,0,0,0,.124.615l3.828,2.73A.357.357,0,0,0,96.927,3720.368Z" transform="translate(-92.707 -3716.745)"/></g><g transform="translate(11.11 9.633)"><path class="c" d="M91.087,3718.446a.366.366,0,0,0-.54.143.483.483,0,0,0,.124.615l3.858,2.74a.363.363,0,0,0,.208.068.386.386,0,0,0,.333-.21.484.484,0,0,0-.125-.615Z" transform="translate(-90.487 -3718.378)"/></g><g transform="translate(4.152 4.682)"><path class="c" d="M84.259,3711.565,81,3713.9a.481.481,0,0,0,0,.756l3.887,2.749a.354.354,0,0,0,.42,0l.866-.636a.483.483,0,0,0,.117-.617.365.365,0,0,0-.543-.132l-.657.483-3.144-2.223,2.52-1.8,3.1,2.209-.361.265a.484.484,0,0,0-.117.617.365.365,0,0,0,.543.132l.879-.645a.469.469,0,0,0,.179-.378.461.461,0,0,0-.183-.375l-3.829-2.73A.352.352,0,0,0,84.259,3711.565Z" transform="translate(-80.816 -3711.497)"/></g><g transform="translate(9.512 10.807)"><path class="c" d="M92.88,3723.441a.484.484,0,0,0-.126-.615l-3.888-2.749a.365.365,0,0,0-.54.143.483.483,0,0,0,.126.615l3.887,2.749a.353.353,0,0,0,.206.068A.385.385,0,0,0,92.88,3723.441Z" transform="translate(-88.267 -3720.01)"/></g><g transform="translate(2.74 8.319)"><path class="c" d="M78.914,3716.762a.483.483,0,0,0,.126.615l9.6,6.785a.353.353,0,0,0,.206.068.383.383,0,0,0,.334-.211.484.484,0,0,0-.126-.615l-9.6-6.785A.366.366,0,0,0,78.914,3716.762Z" transform="translate(-78.855 -3716.551)"/></g></g><g transform="translate(167.603 1.376)"><path class="c" d="M321.09,3712.255a.34.34,0,0,0,.316-.36v-3.914a1.022,1.022,0,0,0-.949-1.079H308.938a1.022,1.022,0,0,0-.95,1.079v16.268a1.022,1.022,0,0,0,.95,1.08h11.519a1.022,1.022,0,0,0,.949-1.08V3721.6a.319.319,0,1,0-.632,0v2.651a.341.341,0,0,1-.317.361H308.938a.341.341,0,0,1-.317-.361v-16.268a.34.34,0,0,1,.317-.36h11.519a.341.341,0,0,1,.317.36v3.914A.34.34,0,0,0,321.09,3712.255Z" transform="translate(-307.988 -3706.902)"/><g transform="translate(6.393 15.764)"><path class="c" d="M318.9,3728.811H317.19a.363.363,0,0,0,0,.72H318.9a.363.363,0,0,0,0-.72Z" transform="translate(-316.873 -3728.811)"/></g><g transform="translate(3.608 13.748)"><path class="c" d="M317.813,3726.01h-4.494a.363.363,0,0,0,0,.72h4.494a.363.363,0,0,0,0-.72Z" transform="translate(-313.002 -3726.01)"/></g><g transform="translate(3.608 11.733)"><path class="c" d="M317.813,3723.209h-4.494a.363.363,0,0,0,0,.719h4.494a.363.363,0,0,0,0-.719Z" transform="translate(-313.002 -3723.209)"/></g><g transform="translate(2.256 9.718)"><path class="c" d="M311.664,3720.513a.292.292,0,0,0-.448,0,.4.4,0,0,0,0,.51.292.292,0,0,0,.448,0,.4.4,0,0,0,0-.51Z" transform="translate(-311.123 -3720.408)"/></g><g transform="translate(2.256 11.733)"><path class="c" d="M311.664,3723.315a.29.29,0,0,0-.448,0,.395.395,0,0,0,0,.509.292.292,0,0,0,.448,0,.4.4,0,0,0,0-.509Z" transform="translate(-311.123 -3723.209)"/></g><g transform="translate(2.256 13.748)"><path class="c" d="M311.664,3726.116a.291.291,0,0,0-.448,0,.395.395,0,0,0,0,.509.29.29,0,0,0,.448,0,.4.4,0,0,0,0-.509Z" transform="translate(-311.123 -3726.01)"/></g><g transform="translate(3.608 9.718)"><path class="c" d="M317.813,3720.408h-4.494a.363.363,0,0,0,0,.719h4.494a.363.363,0,0,0,0-.719Z" transform="translate(-313.002 -3720.408)"/></g><g transform="translate(3.608 7.606)"><path class="c" d="M317.813,3717.473h-4.494a.363.363,0,0,0,0,.72h4.494a.363.363,0,0,0,0-.72Z" transform="translate(-313.002 -3717.473)"/></g><g transform="translate(3.608 5.591)"><path class="c" d="M317.813,3714.672h-4.494a.363.363,0,0,0,0,.719h4.494a.363.363,0,0,0,0-.719Z" transform="translate(-313.002 -3714.672)"/></g><g transform="translate(2.256 3.575)"><path class="c" d="M311.664,3711.976a.291.291,0,0,0-.448,0,.4.4,0,0,0,0,.509.292.292,0,0,0,.448,0,.4.4,0,0,0,0-.509Z" transform="translate(-311.123 -3711.871)"/></g><g transform="translate(2.256 5.591)"><path class="c" d="M311.664,3714.778a.29.29,0,0,0-.448,0,.395.395,0,0,0,0,.509.291.291,0,0,0,.448,0,.4.4,0,0,0,0-.509Z" transform="translate(-311.123 -3714.672)"/></g><g transform="translate(2.256 7.606)"><path class="c" d="M311.664,3717.579a.29.29,0,0,0-.448,0,.395.395,0,0,0,0,.509.29.29,0,0,0,.448,0,.4.4,0,0,0,0-.509Z" transform="translate(-311.123 -3717.473)"/></g><g transform="translate(3.608 3.575)"><path class="c" d="M317.813,3711.871h-4.494a.363.363,0,0,0,0,.719h4.494a.363.363,0,0,0,0-.719Z" transform="translate(-313.002 -3711.871)"/></g><g transform="translate(9.418 4.487)"><path class="c" d="M327.2,3713.342a1.18,1.18,0,0,0-1.009-.151,1.357,1.357,0,0,0-.807.7l-3.982,7.845a.389.389,0,0,0-.041.14l-.28,2.855a.376.376,0,0,0,.156.352.287.287,0,0,0,.158.048.3.3,0,0,0,.188-.07l2.034-1.7a.351.351,0,0,0,.086-.109l3.982-7.845A1.631,1.631,0,0,0,327.2,3713.342ZM321.789,3724l.146-1.492.916.6Zm1.523-1.418-1.206-.792,3.2-6.3,1.206.792Zm3.824-7.533-.312.614-1.206-.792.312-.614a.711.711,0,0,1,.423-.369.618.618,0,0,1,.528.079.782.782,0,0,1,.324.48A.879.879,0,0,1,327.136,3715.046Z" transform="translate(-321.077 -3713.138)"/></g></g><g transform="translate(86.55 99.362)"><path class="c" d="M207,3845.421h-1.547v-.612a.542.542,0,0,0-.5-.574h-1.6a1.461,1.461,0,0,0-2.854,0h-1.633a.542.542,0,0,0-.5.574v.612H196.85a1.628,1.628,0,0,0-1.513,1.72v13.8a1.629,1.629,0,0,0,1.513,1.721H207a1.629,1.629,0,0,0,1.513-1.721v-13.8A1.628,1.628,0,0,0,207,3845.421Zm-7.632-.039h1.546a.542.542,0,0,0,.5-.573.509.509,0,1,1,1.009,0,.542.542,0,0,0,.5.573h1.513v.612a.543.543,0,0,1-.5.573h-4.068a.543.543,0,0,1-.5-.573Zm8.137,15.563a.544.544,0,0,1-.5.574H196.85a.543.543,0,0,1-.5-.574v-13.8a.543.543,0,0,1,.5-.574h1.6a1.543,1.543,0,0,0,1.427,1.147h4.068a1.543,1.543,0,0,0,1.427-1.147H207a.544.544,0,0,1,.5.574Z" transform="translate(-195.337 -3843.088)"/><g transform="translate(2.017 9.789)"><path class="c" d="M202.064,3856.865a.462.462,0,0,0-.713-.007l-1.694,1.9-.655-.745a.463.463,0,0,0-.713,0,.631.631,0,0,0,0,.812l1.009,1.147a.462.462,0,0,0,.71,0l2.051-2.294A.631.631,0,0,0,202.064,3856.865Z" transform="translate(-198.141 -3856.693)"/></g><g transform="translate(2.017 13.804)"><path class="c" d="M202.064,3862.445a.462.462,0,0,0-.713-.006l-1.694,1.9-.655-.745a.461.461,0,0,0-.713,0,.63.63,0,0,0,0,.811l1.009,1.147a.463.463,0,0,0,.71,0l2.051-2.295A.63.63,0,0,0,202.064,3862.445Z" transform="translate(-198.141 -3862.274)"/></g><g transform="translate(2.017 5.774)"><path class="c" d="M201.019,3853.575l-.652-.742.652-.741a.631.631,0,0,0,0-.812.462.462,0,0,0-.713,0l-.652.742-.653-.742a.462.462,0,0,0-.713,0,.631.631,0,0,0,0,.812l.652.741-.652.742a.631.631,0,0,0,0,.812.462.462,0,0,0,.713,0l.653-.742.652.742a.462.462,0,0,0,.713,0A.631.631,0,0,0,201.019,3853.575Z" transform="translate(-198.141 -3851.113)"/></g><g transform="translate(7.094 6.921)"><path class="c" d="M208.761,3852.707H205.7a.579.579,0,0,0,0,1.148h3.06a.579.579,0,0,0,0-1.148Z" transform="translate(-205.197 -3852.707)"/></g><g transform="translate(7.094 10.937)"><path class="c" d="M208.761,3858.288H205.7a.578.578,0,0,0,0,1.147h3.06a.578.578,0,0,0,0-1.147Z" transform="translate(-205.197 -3858.288)"/></g><g transform="translate(7.094 14.951)"><path class="c" d="M208.761,3863.868H205.7a.579.579,0,0,0,0,1.148h3.06a.579.579,0,0,0,0-1.148Z" transform="translate(-205.197 -3863.868)"/></g><g transform="translate(14.189 3.48)"><path class="c" d="M216.571,3847.924a1.629,1.629,0,0,0-1.513,1.721v9.177a.659.659,0,0,0,.025.18l1.009,3.479a.488.488,0,0,0,.958,0l1.009-3.479a.665.665,0,0,0,.026-.18v-9.177A1.629,1.629,0,0,0,216.571,3847.924Zm0,12.546-.417-1.437a.829.829,0,0,1,.833,0Zm.5-2.621a1.708,1.708,0,0,0-1.009,0v-5.336h1.009Zm0-6.484h-1.009v-1.72a.509.509,0,1,1,1.009,0Z" transform="translate(-215.058 -3847.924)"/></g></g><g transform="translate(247.112 98.786)"><g transform="translate(2.421 18.301)"><path class="c" d="M422.467,3867.842a.326.326,0,0,0-.5,0,.445.445,0,0,0,0,.573.327.327,0,0,0,.5,0,.445.445,0,0,0,0-.573Z" transform="translate(-421.859 -3867.723)"/></g><g transform="translate(16.108 7.288)"><path class="c" d="M441.49,3852.536a.326.326,0,0,0-.5,0,.444.444,0,0,0,0,.572.326.326,0,0,0,.5,0,.444.444,0,0,0,0-.572Z" transform="translate(-440.882 -3852.417)"/></g><path class="c" d="M436.618,3842.406a.337.337,0,0,0-.252-.119h-8.758a.383.383,0,0,0-.356.4v1.158l-3.374,1.028a.413.413,0,0,0-.252.5l1.749,7.424-1.513,1.72a1.039,1.039,0,0,0-.881-.529h-3.418a1.149,1.149,0,0,0-1.068,1.214v6.6a1.15,1.15,0,0,0,1.068,1.215h3.418a1.107,1.107,0,0,0,1.037-.923l.423.42a1.675,1.675,0,0,0,1.179.5h10.747a.383.383,0,0,0,.356-.4v-19.921A.435.435,0,0,0,436.618,3842.406Zm-13.281,19.4a.384.384,0,0,1-.356.405h-3.418a.383.383,0,0,1-.356-.405v-6.6a.384.384,0,0,1,.356-.405h1.353v4.665a.359.359,0,1,0,.712,0V3854.8h1.353a.384.384,0,0,1,.356.405v6.6Zm1.069-16.246,2.846-.868v1.5l-.238.073a.367.367,0,0,0-.217.189.457.457,0,0,0-.035.308,1.114,1.114,0,0,1-.678,1.334.367.367,0,0,0-.217.189.459.459,0,0,0-.035.308l1.388,5.844h-.714l-.368-1.638a.427.427,0,0,0-.06-.142Zm2.846,2.489v3.417l-.649-2.734A1.771,1.771,0,0,0,427.252,3848.046Zm5.115,14.162h-6.748a1.012,1.012,0,0,1-.711-.3l-.86-.853v-5.6l1.554-1.767.282,1.254a.368.368,0,0,0,.345.3h7a.572.572,0,0,1,0,1.134h-3.587a.408.408,0,0,0,0,.81h4.7a.572.572,0,0,1,0,1.134h-4.7a.408.408,0,0,0,0,.81h3.939a.572.572,0,0,1,0,1.134h-3.939a.408.408,0,0,0,0,.81h2.725a.572.572,0,0,1,0,1.134Zm3.643,0h-2.541a1.543,1.543,0,0,0,0-1.134h.112a1.3,1.3,0,0,0,1.21-1.376,1.524,1.524,0,0,0-.128-.616,1.362,1.362,0,0,0,.89-1.327,1.5,1.5,0,0,0-.239-.82V3851.8a.359.359,0,1,0-.712,0v4.607a1.064,1.064,0,0,0-.26-.032h-.012a1.529,1.529,0,0,0,.108-.567,1.3,1.3,0,0,0-1.21-1.376h-.573a1.962,1.962,0,0,0,1.035-1.782,1.718,1.718,0,1,0-3.408,0,1.962,1.962,0,0,0,1.035,1.782h-1.946v-7.7a1.807,1.807,0,0,0,1.276-1.452h2.678a1.807,1.807,0,0,0,1.276,1.452v1.258a.359.359,0,1,0,.712,0v-1.62a.383.383,0,0,0-.356-.405,1.031,1.031,0,0,1-.958-1.09.383.383,0,0,0-.356-.4H430.33a.383.383,0,0,0-.355.4,1.032,1.032,0,0,1-.959,1.09.383.383,0,0,0-.356.405v8.061h-.7V3843.1h8.046Zm-4.023-8.428a1.137,1.137,0,1,1,.992-1.128A1.067,1.067,0,0,1,431.987,3853.78Z" transform="translate(-418.494 -3842.287)"/></g><g transform="translate(86.176 0.375)"><g transform="translate(8.056)"><path class="c" d="M206.939,3725.939a1,1,0,0,1-.925-1.052v-18.323a.933.933,0,1,1,1.851,0v18.323A1,1,0,0,1,206.939,3725.939Z" transform="translate(-206.014 -3705.511)"/></g><g transform="translate(0 9.162)"><path class="c" d="M211.855,3720.35H195.743a1.061,1.061,0,0,1,0-2.1h16.112a1.061,1.061,0,0,1,0,2.1Z" transform="translate(-194.818 -3718.245)"/></g></g><g transform="translate(247.245 0.375)"><g transform="translate(8.056)"><path class="c" d="M430.8,3725.939a1,1,0,0,1-.925-1.052v-18.323a.933.933,0,1,1,1.85,0v18.323A.994.994,0,0,1,430.8,3725.939Z" transform="translate(-429.876 -3705.511)"/></g><g transform="translate(0 9.162)"><path class="c" d="M435.716,3720.35H419.6a1.061,1.061,0,0,1,0-2.1h16.112a1.061,1.061,0,0,1,0,2.1Z" transform="translate(-418.679 -3718.245)"/></g></g><g transform="translate(166.723 100.573)"><g transform="translate(8.056)"><path class="c" d="M318.887,3865.2a1,1,0,0,1-.925-1.053v-18.324a.933.933,0,1,1,1.851,0v18.324A1,1,0,0,1,318.887,3865.2Z" transform="translate(-317.962 -3844.771)"/></g><g transform="translate(0 9.161)"><path class="c" d="M323.8,3859.608H307.691a1.061,1.061,0,0,1,0-2.1H323.8a1.061,1.061,0,0,1,0,2.1Z" transform="translate(-306.766 -3857.504)"/></g></g><g transform="translate(2.917 100.573)"><g transform="translate(8.056)"><path class="c" d="M91.221,3865.2a1,1,0,0,1-.925-1.053v-18.324a.933.933,0,1,1,1.851,0v18.324A1,1,0,0,1,91.221,3865.2Z" transform="translate(-90.296 -3844.771)"/></g><g transform="translate(0 9.161)"><path class="c" d="M96.137,3859.608H80.025a1.061,1.061,0,0,1,0-2.1H96.137a1.061,1.061,0,0,1,0,2.1Z" transform="translate(-79.1 -3857.504)"/></g></g></g><g transform="translate(60.49 1602.088)"><g transform="translate(0)"><path class="c" d="M142.728,3974.174a7.769,7.769,0,1,0,7.768,7.769A7.768,7.768,0,0,0,142.728,3974.174Zm0,11.837a4.069,4.069,0,1,1,0-8.138h0a4.069,4.069,0,0,1,0,8.138Z" transform="translate(-104.162 -3950.615)"/><path class="c" d="M161.7,3947.234l-50.493-5.733a6.937,6.937,0,0,0-5.457,1.572,7.031,7.031,0,0,0-2.682,4.809l-.925,7.583H99.279c-4.07,0-7.121,3.607-7.121,7.676v37.824a7.028,7.028,0,0,0,6.84,7.211q.14,0,.281,0H150.05c4.069,0,7.768-3.144,7.768-7.213v-1.48a9.242,9.242,0,0,0,3.514-1.479,7.675,7.675,0,0,0,2.682-4.994l4.254-37.546A7.491,7.491,0,0,0,161.7,3947.234Zm-7.584,53.73c0,2.035-2.034,3.514-4.069,3.514H99.279a3.33,3.33,0,0,1-3.426-3.23c0-.095,0-.189,0-.284v-6.843l14.335-10.543a4.439,4.439,0,0,1,5.734.278l10.08,8.878a8.692,8.692,0,0,0,5.456,2.034,8.418,8.418,0,0,0,4.439-1.2l18.219-10.542v17.941Zm0-22.287-20.16,11.744a4.715,4.715,0,0,1-5.456-.462l-10.173-8.971a8.23,8.23,0,0,0-10.265-.37L95.857,3989.5v-26.356c0-2.035,1.387-3.977,3.422-3.977H150.05a4.253,4.253,0,0,1,4.069,3.977v15.537Zm10.454-23.712,0,.038-4.347,37.546a3.142,3.142,0,0,1-1.2,2.5c-.37.37-1.2.555-1.2.74v-32.645a7.953,7.953,0,0,0-7.768-7.676h-44.2l.832-7.213a3.682,3.682,0,0,1,4.162-3.145l50.4,5.826A3.7,3.7,0,0,1,164.572,3954.965Z" transform="translate(-92.156 -3941.431)"/></g></g></g></svg>